<svg xmlns="http://www.w3.org/2000/svg" width="489" height="352" viewBox="0 0 489 352">
    <g fill="none" fill-rule="evenodd">
        <path fill="#FFF" d="M379.587 297.498H69.572c-7.035 0-12.79-5.756-12.79-12.79V77.718c0-7.034 5.755-12.79 12.79-12.79h310.015c7.035 0 12.79 5.756 12.79 12.79v206.99c0 7.034-5.755 12.79-12.79 12.79" transform="translate(.29)"/>
        <path fill="#909FFB" d="M144.465 125.572H12.79c-7.035 0-12.79-5.755-12.79-12.79V12.792C0 5.755 5.755 0 12.79 0h131.675c7.035 0 12.79 5.755 12.79 12.79v99.993c0 7.034-5.755 12.79-12.79 12.79" transform="translate(.29)"/>
        <path fill="#1A1A1A" d="M341.263 302.053c-.335-2.795-1.268-4.651-2.606-4.793-1.34-.141-37.12 0-37.12 0s-.097.119-.27.311c2.494-2.988 3.431-6.87 1.952-10.724l-19.07-49.665c-1.966-5.121-7.715-8.602-14.212-8.602h-72.385c-10.088 0-17.265 8.11-14.213 16.067l19.069 49.665c1.285 3.344 4.19 5.981 7.859 7.413-.04-.006 1.026 4.505 3.385 4.21h125.664s2.282-1.092 1.947-3.882" transform="translate(.29)"/>
        <path fill="#FF857B" d="M348.226 178.197s-12.99 1.867-21.212 9.57c-8.223 7.702-13.17 14.085-17.917 27.13-4.747 13.05-2.161 13.74-7.256 24.441-5.095 10.702-6.446 13.26-6.446 13.26l12.21 33.106s1.252 9.247-3.01 11.46l3.297.334s9.037-7.838 12.181-14.182c3.144-6.344 5.697-13.367 5.697-13.367s.083 7.996-.63 14.272-2.398 11.07-5.641 13.039l17.749.238s3.323-.447 4.021 2.722-1.954 5.342-1.954 5.342l8.911.374s13.377 4.476 26.982 5.37c13.605.889 18.717-3.661 18.717-3.661l3.706 21.81s13.877 1.698 24.245-.56 18.59-5.5 18.59-5.5-11.805-56.53-12.937-61.522c-1.137-4.991-7.136-30.044-8.505-34.945-1.37-4.895-4.001-14.81-10.17-25.67-6.163-10.86-10.91-15.568-15.405-17.826-4.495-2.264-15.409-7.991-27-7.238-11.59.747-18.223 2.003-18.223 2.003" transform="translate(.29)"/>
        <path fill="#FFF" d="M366.45 176.194l-3.496-16.282s4.76.051 6.24-3.446c1.48-3.492-1.332-7.363-3.962-7.725-2.63-.368-4.324.04-4.324.04l-1.805-7.64h-.414l-.385 2.286-15.95.532-.984-4.16-3.074 4.052-3.586.289 1.64 16.429s1.695 13.01 6.94 12.93c5.247-.078 4.936-.373 4.936-.373l1.42 6.69s-2.864 15.2 4.168 14.73c7.032-.47 10.66-9.983 11.302-12.399.643-2.416 1.334-5.953 1.334-5.953M411.407 330.162v2.411s-6.432 9.943-7.733 11.913c-1.3 1.963-.808 5.557 1.984 6.321 2.794.77 5.76-2.943 7.401-4.969 1.635-2.026 3.956-4.652 6.333-4.442 2.376.215 9.003.537 16.202 3.458 7.198 2.92 8.256 4.352 11.426 4.43 3.169.074 4.465-1.742 4.951-2.342 0 0 2.128.894 4.822-1.172 2.694-2.065.685-4.057.685-4.057s1.42-.702.735-2.711c-.679-2.009-3.474-3.237-6.728-4.867-3.249-1.63-7.742-2.1-10.65-4.007-2.904-1.907-5.671-4.334-5.671-4.334s-4.895 1.584-11.868 2.852c-6.972 1.267-11.89 1.516-11.89 1.516" transform="translate(.29)"/>
        <path fill="#1A1A1A" d="M396.872 185.633s-2-7.136-7.442-11.975c-5.442-4.833-15.375-5.472-15.375-5.472s-5.007 4.686-8.05 4.561l.707 3.43s6.85-.374 13.728 1.946c6.877 2.326 16.432 7.51 16.432 7.51M363.683 163.308s5.9-1.902 8.4-7.73c2.5-5.83 2.439-11.059 1.175-16.526-1.264-5.466-3.645-10.446-8.557-11.442-4.911-1.002-9.483.198-9.483.198s-4.817-2.785-10.954-1.517c-6.136 1.268-13.04 5.914-12.89 18.12l6.649-.469 3.222-4.386.687 4.278 16.372-.407s1.064-5.829 1.064-5.614c0 .21-.353 7.04 1.54 10.968 0 0 6.397-1.975 7.976 2.852 1.578 4.827-1.287 8.556-5.93 8.28-4.643-.284 0-.278 0-.278l.73 3.673" transform="translate(.29)"/>
        <path fill="#3552FF" d="M369.603 159.442s2.883 2.949 3.72 5.456c.838 2.501.05 5.704-6.873 7.934l-.724-.006-2.043-9.518s4.586-1.359 5.92-3.866" transform="translate(.29)"/>
        <path fill="#CCC" d="M424.7 249.921s-13.237 3.492-10.81 17.753c2.434 14.267 13.702 16.666 18.212 15.042l-7.402-32.795" transform="translate(.29)"/>
        <path fill="#FFF" d="M240.912 265.405c2.261 3.916 2.005 8.302-.572 9.784-2.577 1.489-6.499-.48-8.76-4.391-2.26-3.916-2.005-8.302.572-9.785 2.577-1.488 6.499.481 8.76 4.392" transform="translate(.29)"/>
        <path fill="#1A1A1A" d="M228.974 305.936s-17.051 10.288-17.472 34.305h112.573s11.412 3.073 25.782 3.26c14.37.187 23.76-.996 30.83-3.118 7.07-2.122 10.883-4.375 13.238-9.377 2.355-5.003 2.325-9.61 2.325-9.61l-2.325-13.751s-8.493 5.048-22.37 3.214c-13.878-1.834-22.543-5.212-22.543-5.212l-120.038.289" transform="translate(.29)"/>
        <path fill="#87CAA2" d="M80.188 305.341s-11.895-4.187-10.809-14.86c1.086-10.668 7.262-19.457 13.922-26.18 6.66-6.717 20.746-20.209 34.598-24.963 0 0-1.846 15.62-4.934 26.48-3.087 10.854-6.946 26.445-15.477 34.956-8.532 8.517-17.3 4.567-17.3 4.567" transform="translate(.29)"/>
        <path fill="#4FBA7A" d="M68.67 253.05l-18.848-85.719s-15.08 22.354-15.817 44.957c-.738 22.602 15.81 38.499 34.664 40.763" transform="translate(.29)"/>
        <path fill="#1A1A1A" d="M28.36 142.08h130.487c7.362 0 13.385-6.021 13.385-13.384v-25.143l-24.084-12.304c-5.86-3.01-15.765-3.74-22.005-1.618l-18.052 6.123c-6.24 2.122-15.98 1.092-21.644-2.28L67.095 81.946s-19.284-13.831-34.264 1.641C22.17 94.6 14.976 101.849 14.976 101.849v26.847c0 7.363 6.023 13.384 13.385 13.384" transform="translate(.29)"/>
        <path fill="#FFF" d="M135.044 65.88c-7.644 0-13.847-6.197-13.847-13.843 0-7.645 6.203-13.842 13.847-13.842 7.638 0 13.835 6.197 13.835 13.842 0 7.646-6.197 13.842-13.835 13.842" transform="translate(.29)"/>
        <path fill="#3552FF" d="M181.031 151.191l-26.235-16.236c-1.111-.685-2.538.153-2.474 1.46l1.51 30.814c.06 1.223 1.393 1.942 2.444 1.319l7.093-4.182c.772-.453 1.766-.198 2.221.571l10.312 17.493c.456.77 1.45 1.03 2.222.572l5.613-3.311c.771-.453 1.028-1.449.573-2.218l-10.312-17.493c-.455-.77-.198-1.766.573-2.218l6.43-3.792c1.051-.623 1.067-2.133.03-2.779" transform="translate(.29)"/>
        <path fill="#FFF" d="M332.922 47.323H287.33c-3.619 0-6.58-2.96-6.58-6.576V12.904c0-3.617 2.961-6.578 6.58-6.578h45.59c3.62 0 6.58 2.96 6.58 6.578v27.843c0 3.616-2.96 6.576-6.58 6.576" opacity=".472" transform="translate(.29)"/>
        <path fill="#FFF" d="M325.442 9.026c-1.304-2.231-3.437-2.231-4.74 0L310.687 26.18c-1.303 2.23-.255 4.058 2.33 4.058h20.121c2.585 0 3.632-1.828 2.328-4.058L325.442 9.026" transform="translate(.29)"/>
        <path fill="#3552FF" d="M224.58 104.367c0 4.46-3.613 8.07-8.07 8.07-4.457 0-8.07-3.61-8.07-8.07 0-4.453 3.613-8.07 8.07-8.07 4.457 0 8.07 3.617 8.07 8.07M217.35 141.885c0 4.454-3.612 8.064-8.068 8.064-4.457 0-8.07-3.61-8.07-8.064 0-4.46 3.613-8.07 8.07-8.07 4.456 0 8.069 3.61 8.069 8.07M224.348 174.044c0 4.454-3.613 8.07-8.07 8.07-4.456 0-8.069-3.616-8.069-8.07 0-4.46 3.613-8.07 8.07-8.07 4.456 0 8.07 3.61 8.07 8.07" transform="translate(.29)"/>
        <path fill="#87CAA2" d="M49.892 302.789s7.548-4.097 6.844-14.103c-.705-10-6.976-16.247-19.127-25.455C25.46 254.03 2.67 246.81 2.67 246.81s3.806 12.455 5.619 17.588c1.812 5.127 10.558 27.113 18.936 34.929 8.377 7.82 16.076 9.009 22.667 3.463" transform="translate(.29)"/>
        <path fill="#FFF" d="M344.437 134.565c3.499-6.542 4.72-7.629 10.23-6.757.35.056.55 0 .551 0 0 0-4.818-2.785-10.954-1.517-6.136 1.268-13.04 5.914-12.89 18.12l6.649-.469 3.222-4.386.687 4.278 2.644-.067c-.501-1.053-1.76-6.175-.139-9.202" transform="translate(.29)"/>
        <path fill="#000" d="M145.92 142.997H28.36c-7.688 0-13.941-6.253-13.941-13.944v-99.16c0-7.685 6.253-13.939 13.942-13.939h130.487c7.686 0 13.94 6.254 13.94 13.939v99.16c0 2.41-.63 4.787-1.826 6.881-.152.266-.496.357-.76.21-.267-.159-.36-.498-.207-.764 1.097-1.924 1.679-4.109 1.679-6.327v-99.16c0-7.074-5.755-12.83-12.826-12.83H28.36c-7.073 0-12.828 5.756-12.828 12.83v99.16c0 7.08 5.755 12.829 12.828 12.829H145.92c.308 0 .557.249.557.56 0 .306-.25.555-.557.555M405.227 341.271h-25.701c-.309 0-.557-.249-.557-.56 0-.305.248-.554.557-.554h25.701c.309 0 .558.249.558.554 0 .311-.25.56-.558.56M325.13 341.271H14.977c-.31 0-.557-.249-.557-.56 0-.305.248-.554.557-.554H325.13c.309 0 .557.249.557.554 0 .311-.248.56-.557.56M487.285 341.271h-29.072c-.305 0-.554-.249-.554-.56 0-.305.249-.554.554-.554h29.072c.305 0 .554.249.554.554 0 .311-.249.56-.554.56M344.63 174.218c-.649 0-1.306-.09-1.97-.322-1.131-.408-2.196-1.24-3.082-2.417-3.204-4.238-3.704-9.552-4.19-14.685l-.127-1.341c-.313-3.147-.659-11.07-.662-11.155-.013-.305.225-.56.532-.577.254-.011.568.227.581.532.004.08.35 7.974.66 11.087l.129 1.346c.468 4.98.954 10.136 3.967 14.126.754.996 1.64 1.697 2.566 2.031 1.427.498 2.881.181 4.425-.17.4-.096.8-.18 1.2-.26 1.936-.362 3.899-.866 5.836-1.494.29-.096.606.068.701.357.094.294-.065.61-.36.707-1.979.64-3.988 1.155-5.97 1.528-.385.074-.773.159-1.162.25-1.004.225-2.03.457-3.074.457M350.106 148.74c-.45-.016-.726.205-.67 1.812.061 1.794.557 2.054.954 1.992.396-.057.734-.65.57-1.919-.165-1.267-.264-1.861-.854-1.884" transform="translate(.29)"/>
        <path fill="#000" d="M338.255 149.726c-.45-.034-.732.18-.731 1.788 0 1.794.488 2.071.887 2.026.398-.051.755-.628.633-1.902-.12-1.273-.2-1.867-.789-1.912M335.457 147.473c-.136 0-.272-.05-.379-.147-.225-.21-.24-.566-.03-.792.734-.792 1.735-1.472 4.024-1.155.304.046.517.329.472.634-.044.306-.33.504-.63.476-1.862-.283-2.533.249-3.049.809-.11.113-.258.175-.408.175M363.615 160.467c-.773 0-1.54-.142-2.265-.42-.288-.107-.43-.435-.322-.718.11-.288.433-.436.72-.322.887.334 1.854.435 2.797.26 1.382-.243 2.584-1.013 3.387-2.162.804-1.154 1.109-2.546.862-3.927-.245-1.387-1.014-2.587-2.166-3.39-1.151-.804-2.547-1.115-3.927-.86-1.037.18-1.981.662-2.736 1.392-.218.215-.576.215-.789-.011-.214-.221-.208-.572.013-.787.913-.889 2.061-1.471 3.316-1.692 1.679-.306 3.367.073 4.761 1.041 1.396.973 2.328 2.434 2.627 4.109.299 1.675-.073 3.367-1.046 4.765-.973 1.392-2.431 2.326-4.106 2.62-.373.068-.751.102-1.126.102" transform="translate(.29)"/>
        <path fill="#000" d="M365.704 157.026c-.065 0-.133-.011-.199-.04l-4.626-1.777c-.163-.062-.288-.198-.336-.367-.047-.17-.015-.351.09-.487l3.23-4.312c.185-.25.533-.3.782-.114.247.193.295.538.11.787l-2.788 3.718 3.936 1.517c.288.107.432.43.322.718-.086.221-.297.357-.52.357M353.924 195.106c-.763 0-1.484-.17-2.1-.503-2.28-1.25-2.948-4.414-3.101-5.354-.256-1.596-.147-3.175-.041-4.703.034-.48.066-.962.088-1.448.006-.09.124-2.711.124-2.711l-1.217-7.165c-.051-.305.152-.6.457-.645.299-.073.593.153.642.453l1.225 7.29c.008.118-.113 2.766-.117 2.834-.023.487-.057.98-.09 1.472-.106 1.528-.205 2.976.032 4.448.13.815.698 3.548 2.533 4.55.855.464 2.018.486 3.19.068 6.625-2.383 9.284-10.877 10.35-17.583.046-.306.338-.544.637-.464.305.045.512.328.465.633-1.596 10.045-5.425 16.429-11.074 18.46-.675.244-1.353.368-2.003.368M346.74 164.655c-.343 0-.702-.029-1.078-.091-.305-.045-.514-.334-.467-.634.047-.305.337-.554.635-.464 1.293.192 2.295-.011 2.99-.617 1.172-1.024 1.15-2.858 1.15-2.875-.005-.317.26-.577.558-.571.303 0 .55.243.557.549.002.096.028 2.377-1.53 3.74-.736.64-1.679.963-2.815.963" transform="translate(.29)"/>
        <path fill="#000" d="M366.45 176.748c-.257 0-.488-.175-.544-.436l-3.497-15.783c-.067-.3.123-.6.423-.668.29-.056.599.125.665.425l3.496 15.789c.068.3-.122.594-.423.662-.04.011-.08.011-.12.011M341.063 161.123c-.204 0-.4-.107-.497-.305-.61-1.194-1.933-4.092-1.07-5.179.53-.667 2.018-.543 3.192-.316l-.433-7.052c-.019-.311.215-.571.523-.588.305-.034.57.21.592.52l.477 7.793c.012.175-.064.345-.199.458-.136.114-.324.159-.491.114-1.212-.3-2.544-.402-2.804-.215-.246.31.333 2.246 1.206 3.96.14.278.03.612-.245.748-.08.045-.167.062-.251.062M406.825 351.543c-2.028 0-3.995-1.381-4.503-3.334-.502-1.946.608-3.644 1.586-5.15.215-.322.423-.644.608-.956.512-.871 1.343-1.963 2.226-3.118 1.665-2.184 3.55-4.657 4.19-6.734l.158-2.134c.022-.305.277-.52.594-.515.311.028.537.294.515.606l-.181 2.246c-.719 2.394-2.666 4.946-4.392 7.204-.858 1.127-1.67 2.19-2.149 3.011-.193.323-.412.662-.633 1.002-.896 1.375-1.822 2.795-1.442 4.256.439 1.686 2.418 2.83 4.168 2.416.865-.204 1.714-.753 2.597-1.686.736-.776 1.381-1.676 2.003-2.547.51-.702 1.025-1.426 1.602-2.105 1.443-1.687 3.277-3.384 6.095-3.147 5.852.515 10.707 1.506 14.85 3.034 1.34.498 2.699 1.2 4.13 1.94 3.77 1.947 7.669 3.968 11.432 2.247.493-.226.804-.458.968-.735.345-.572.096-1.37-.215-1.874-1.092-1.743-2.909-2.988-4.669-4.187l-.441-.306c-1.726-1.183-3.701-2.275-6.027-3.344-2.179-.996-4.76-2.094-7.385-2.706-.3-.067-.487-.373-.42-.673.074-.294.386-.492.674-.413 2.722.634 5.365 1.76 7.595 2.779 2.388 1.092 4.414 2.218 6.197 3.44l.435.3c1.772 1.206 3.77 2.575 4.986 4.522.504.81.826 2.032.226 3.033-.288.481-.752.855-1.46 1.177-4.25 1.947-8.585-.288-12.41-2.269-1.404-.73-2.728-1.415-4.001-1.885-4.047-1.494-8.812-2.461-14.561-2.965-2.275-.226-3.832 1.211-5.15 2.756-.543.64-1.053 1.347-1.54 2.026-.65.906-1.318 1.834-2.105 2.671-1.04 1.092-2.065 1.749-3.146 2.004-.334.079-.67.113-1.005.113" transform="translate(.29)"/>
        <path fill="#000" d="M453.409 347.508c-.436 0-.826-.04-1.143-.108-.3-.062-.493-.356-.43-.656.067-.3.367-.487.662-.436.136.023 3.4.662 4.799-2.11.26-.533.249-1.093-.029-1.721-1.46-3.232-9.716-7.408-20.078-10.158-.3-.08-.476-.38-.396-.68.073-.3.379-.486.679-.396 9.02 2.388 18.946 6.65 20.808 10.781.425.94.43 1.84.012 2.671-1.12 2.23-3.294 2.813-4.884 2.813M407.683 330.666c-6.133 0-10.056-.65-10.147-.662-.233-.045-.415-.22-.455-.458-8.368-48.54-19.345-117.937-19.456-118.633-.047-.306.16-.595.465-.64.298-.08.589.158.638.464.11.696 11.025 69.715 19.384 118.226 2.945.413 22.287 2.716 41.72-5.892-1.239-6.293-15.466-78.158-24.21-105.843-1.007-3.192-10.199-25.88-21.153-32.551-3.052-1.862-14.09-7.929-28.02-7.929-.308 0-.556-.249-.556-.554 0-.312.248-.56.557-.56 14.218 0 25.484 6.19 28.599 8.086 11.246 6.853 20.613 29.926 21.643 33.174 9.117 28.873 24.17 105.623 24.323 106.398.051.255-.085.51-.317.611-12.348 5.575-24.708 6.763-33.015 6.763" transform="translate(.29)"/>
        <path fill="#000" d="M457.574 342.431c-.147 0-.3-.062-.407-.18-.21-.221-.199-.572.022-.787.04-.034.6-.606.436-1.55-.198-1.155-1.466-3.017-6.372-5.275-2.202-1.019-4.307-1.698-6.344-2.354-4.25-1.381-7.923-2.564-10.215-6.192-.17-.26-.09-.605.17-.77.26-.163.61-.084.77.176 2.076 3.283 5.404 4.358 9.62 5.722 2.066.673 4.205 1.364 6.468 2.4 4.318 1.991 6.678 4.057 7.012 6.14.243 1.544-.741 2.478-.78 2.523-.108.097-.244.147-.38.147M251.348 341.271c-.322-.011-.566-.266-.557-.571.256-9.774 1.365-19.615 7.682-25.427 5.931-5.46 12.478-8.556 20.603-9.745.322-.05.59.17.633.475.045.306-.166.589-.47.634-7.895 1.15-14.253 4.154-20.01 9.457-6.014 5.534-7.073 15.11-7.324 24.634-.007.3-.256.543-.557.543M351.466 344.061c-33.822 0-43.581-10.531-43.99-10.995-.205-.232-.185-.578.046-.781.227-.21.58-.187.786.04.102.112 10.457 11.182 46.068 10.593 36.156-.634 39.931-9.343 41.32-21.59.036-.3.32-.526.616-.486.306.034.527.311.49.617-1.45 12.806-5.342 21.929-42.407 22.574-.994.017-1.972.028-2.929.028M363.963 163.862c-.23 0-.445-.141-.526-.373-.102-.289.053-.606.342-.708 8.3-2.908 11.855-13.616 8.455-25.472-1.2-4.193-3.325-7.08-6.315-8.59-4.857-2.445-10.446-.408-10.504-.385-.138.045-.29.045-.422-.017-.559-.243-13.8-5.97-20.607 5.24-2.994 4.935-2.748 8.948-2.556 10.26l6.577-.531 2.386-4.29c.115-.21.34-.317.582-.277.233.04.416.22.455.458l.715 4.222 15.284-.515.907-5.4c.047-.276.276-.469.587-.463.284.017.51.254.52.537.003.085.299 8.353 1.567 10.98.134.277.017.61-.26.74-.282.136-.611.023-.745-.26-.689-1.426-1.106-4.216-1.353-6.683l-.2 1.188c-.042.26-.265.453-.53.459l-16.227.543c-.257-.045-.523-.193-.568-.464l-.53-3.135-1.76 3.163c-.09.164-.258.272-.443.289l-7.374.588c-.269.006-.512-.153-.584-.407-.056-.21-1.316-5.133 2.597-11.584 6.832-11.25 19.976-6.486 21.803-5.767 1.125-.374 6.374-1.896 11.176.51 3.284 1.652 5.604 4.775 6.895 9.28 3.567 12.445-.284 23.729-9.158 26.836-.061.023-.126.028-.186.028" transform="translate(.29)"/>
        <path fill="#000" d="M354.118 147.983c-.166 0-.33-.074-.44-.215-2.821-3.628-5.954-1.647-6.09-1.562-.261.158-.604.096-.771-.164-.17-.255-.1-.595.156-.764.045-.029 4.121-2.66 7.586 1.805.187.249.144.6-.098.786-.102.08-.222.114-.343.114" transform="translate(.29)"/>
        <path fill="#1A1A1A" d="M432.102 282.897c-8.29 1.71-16.225-4.33-18.098-13.423-1.873-9.09 2.484-17.844 10.775-19.553l7.323 32.976" transform="translate(.29)"/>
        <path fill="#000" d="M429.256 283.746c-7.42 0-14.058-5.733-15.795-14.154-.951-4.595-.374-9.184 1.624-12.925 2.066-3.854 5.461-6.446 9.58-7.29.29-.056.595.131.657.43.063.3-.13.6-.43.657-3.786.781-6.92 3.17-8.822 6.73-1.874 3.508-2.417 7.831-1.523 12.172 1.845 8.919 9.502 14.606 17.442 12.988.294-.062.594.13.656.43.063.3-.13.6-.43.656-.99.21-1.98.306-2.96.306M304.226 298.052c-.16 0-.318-.068-.428-.198-.196-.237-.165-.588.07-.786 3.183-2.649 4.207-8.783 2.935-12.1l-19.07-49.664c-1.891-4.93-7.396-8.24-13.693-8.24h-72.384c-3.34 0-8.94 2.167-11.328 3.661-.256.164-.602.09-.768-.175-.164-.266-.085-.606.177-.77 2.499-1.562 8.384-3.831 11.92-3.831h72.383c6.756 0 12.678 3.6 14.735 8.958l19.07 49.66c1.43 3.729.318 10.373-3.26 13.36-.107.086-.232.125-.359.125" transform="translate(.29)"/>
        <path fill="#000" d="M289.004 303.462h-72.382c-6.756 0-12.678-3.593-14.735-8.952l-5.341-13.91c-.11-.29.033-.612.321-.72.291-.118.61.035.72.318l5.343 13.91c1.892 4.929 7.396 8.245 13.692 8.245h72.382c5.253 0 9.931-2.246 12.519-6.01 1.962-2.858 2.38-6.157 1.175-9.298l-19.07-49.665c-1.893-4.929-7.395-8.245-13.691-8.245h-72.385c-5.25 0-9.928 2.247-12.515 6.016-1.964 2.852-2.381 6.157-1.177 9.292l5.628 14.657c.11.289-.033.611-.321.719-.288.119-.608-.034-.721-.317l-5.628-14.657c-1.34-3.492-.88-7.159 1.3-10.328 2.795-4.07 7.817-6.497 13.434-6.497h72.385c6.755 0 12.675 3.605 14.734 8.964l19.07 49.66c1.34 3.491.879 7.158-1.298 10.327-2.797 4.07-7.819 6.491-13.439 6.491" transform="translate(.29)"/>
        <path fill="#000" d="M236.618 257.833c-.603 0-1.161.135-1.65.418-1.08.629-1.726 1.88-1.824 3.532-.102 1.743.416 3.695 1.457 5.495 1.038 1.8 2.468 3.22 4.026 4 1.482.748 2.887.816 3.971.188 1.078-.623 1.724-1.874 1.822-3.526.101-1.743-.414-3.696-1.455-5.495-1.039-1.8-2.47-3.226-4.029-4.001-.807-.408-1.596-.611-2.318-.611zm4.332 15.172c-.896 0-1.854-.238-2.823-.73-1.75-.877-3.346-2.456-4.494-4.443-1.148-1.986-1.716-4.153-1.601-6.112.119-2.042.963-3.616 2.378-4.43 1.418-.816 3.203-.765 5.027.152 1.75.877 3.347 2.462 4.495 4.448 1.147 1.987 1.715 4.154 1.602 6.112-.12 2.037-.966 3.616-2.379 4.431-.664.38-1.411.572-2.205.572zM337.675 306.518H214.144c-2.388 0-4.174-2.269-4.174-4.3 0-.323.26-.583.58-.583.32 0 .58.26.58.582 0 1.45 1.316 3.141 3.014 3.141h123.531c1.662 0 3.015-1.233 3.015-2.75v-1.783c0-1.516-1.353-2.75-3.015-2.75h-36.156c-.32 0-.58-.26-.58-.577 0-.323.26-.583.58-.583h36.156c2.302 0 4.174 1.754 4.174 3.91v1.783c0 2.156-1.872 3.91-4.174 3.91" transform="translate(.29)"/>
        <path fill="#000" d="M211.502 340.796c-.311 0-.56-.249-.558-.555.07-23.429 18.402-34.673 18.589-34.78.256-.154.608-.074.764.192.158.26.073.605-.192.764-.179.107-17.979 11.046-18.047 33.824 0 .306-.25.555-.556.555M377.356 311.929c-1.12 0-2.275-.051-3.458-.159-10.693-1.013-24.09-4.935-25.248-5.274h-10.975c-.308 0-.557-.25-.557-.56 0-.306.249-.555.557-.555h11.056c.3.062 14.254 4.233 25.272 5.274 10.899 1.07 19.578-3.452 19.663-3.503.263-.153.607-.034.752.238.143.266.04.605-.233.753-.325.17-7.315 3.78-16.83 3.786M365.704 173.387c-.248 0-.474-.165-.54-.42-.077-.3.102-.6.4-.678 4.436-1.16 6.922-2.847 7.387-5.02.74-3.446-3.818-7.164-3.865-7.204-.24-.192-.277-.543-.085-.781.196-.232.544-.266.785-.085.208.164 5.139 4.182 4.256 8.302-.559 2.62-3.317 4.595-8.196 5.863-.047.017-.094.023-.142.023" transform="translate(.29)"/>
        <path fill="#000" d="M397.175 186.499c-.225 0-.44-.136-.523-.362-7.06-19.083-22.835-17.306-22.99-17.283-.321.062-.587-.176-.625-.481-.04-.306.178-.589.483-.623.172-.023 16.813-1.913 24.178 18.002.108.288-.041.611-.329.713-.064.023-.13.034-.194.034M295.395 252.779c-.105 0-.21-.034-.303-.09-.26-.165-.333-.516-.165-.776 4.672-7.187 8.02-15.715 10.853-27.645 10.682-44.979 42.943-46.688 43.267-46.7.32 0 .567.238.578.538.01.306-.228.566-.537.578-.316.01-31.746 1.726-42.223 45.839-2.864 12.065-6.258 20.695-11.001 28.001-.107.164-.286.255-.469.255M392.376 168.74c-.308 0-.556-.249-.556-.554V78.313c0-7.069-5.896-12.824-13.143-12.824H179.944c-.309 0-.557-.249-.557-.56 0-.306.248-.555.557-.555h198.733c7.863 0 14.257 6.253 14.257 13.939v89.873c0 .305-.25.554-.558.554M56.782 159.505c-.31 0-.558-.25-.558-.555v-16.508c0-.311.249-.56.558-.56.308 0 .557.249.557.56v16.508c0 .306-.25.555-.557.555M200.655 298.052h-88.553c-.309 0-.557-.249-.557-.554 0-.312.248-.56.557-.56h88.553c.309 0 .557.248.557.56 0 .305-.248.554-.557.554M172.23 104.107c-.086 0-.172-.017-.254-.056l-24.08-12.304c-5.766-2.965-15.444-3.678-21.573-1.59l-18.054 6.123c-6.38 2.174-16.296 1.132-22.107-2.331L66.809 82.42c-.226-.158-19.109-13.378-33.578 1.55-10.542 10.889-17.787 18.2-17.86 18.274-.22.221-.572.221-.788 0-.219-.215-.22-.566-.002-.786.071-.074 7.312-7.374 17.848-18.262 15.145-15.642 34.793-1.845 34.992-1.704l19.312 11.505c5.557 3.305 15.051 4.307 21.178 2.23l18.054-6.123c6.37-2.173 16.443-1.432 22.439 1.646l24.08 12.304c.276.141.383.48.243.752-.098.193-.293.3-.497.3M126.332 38.755c-7.328 0-13.29 5.96-13.29 13.282 0 7.323 5.962 13.288 13.29 13.288 7.32 0 13.278-5.965 13.278-13.288s-5.958-13.282-13.278-13.282zm0 27.68c-7.943 0-14.403-6.458-14.403-14.398 0-7.94 6.46-14.397 14.403-14.397 7.936 0 14.392 6.457 14.392 14.397s-6.456 14.397-14.392 14.397z" transform="translate(.29)"/>
        <path fill="#000" d="M319.002 298.052c-.222 0-.432-.135-.52-.35-.112-.29.03-.612.317-.725 6.223-2.433 6.944-20.944 6.456-30.39-1.86-36.088-1.613-45.335.129-56.478.047-.306.321-.555.638-.464.302.045.511.328.464.634-1.728 11.058-1.97 20.26-.117 56.246.149 2.88 1.21 28.222-7.164 31.493-.067.023-.135.034-.203.034" transform="translate(.29)"/>
        <path fill="#000" d="M307.855 297.82c-.18 0-.355-.085-.463-.243-.172-.255-.106-.606.15-.775 12.86-8.693 17.804-27.385 17.853-27.572.077-.3.369-.498.68-.402.298.08.477.38.4.68-.05.192-5.102 19.297-18.308 28.216-.096.068-.205.096-.312.096M318.834 10.448c-.692 0-1.362.498-1.889 1.398L306.93 28.999c-.525.894-.628 1.714-.29 2.303s1.097.911 2.139.911H328.9c1.041 0 1.801-.322 2.138-.911.338-.589.234-1.41-.292-2.303l-10.024-17.153c-.527-.906-1.197-1.398-1.888-1.398zm10.066 22.88H308.78c-1.46 0-2.562-.52-3.105-1.471-.546-.951-.44-2.162.293-3.424l10.015-17.147c.736-1.262 1.748-1.955 2.852-1.955 1.103 0 2.116.693 2.852 1.949l10.024 17.153c.736 1.262.841 2.473.295 3.424-.544.95-1.646 1.47-3.105 1.47z" transform="translate(.29)"/>
        <path fill="#000" d="M335.808 42.388h-38.785c-4.385 0-7.952-3.57-7.952-7.95V8.226c0-4.385 3.567-7.953 7.952-7.953h43.959c4.386 0 7.954 3.568 7.954 7.953v21.57c0 .31-.249.56-.557.56-.309 0-.557-.25-.557-.56V8.227c0-3.771-3.07-6.839-6.84-6.839h-43.96c-3.77 0-6.837 3.068-6.837 6.839v26.21c0 3.77 3.067 6.836 6.838 6.836h38.785c.309 0 .557.25.557.555 0 .311-.248.56-.557.56M58.19 174.518C43.313 200.41 39.445 221.246 46.7 236.47c7.685 16.129 25.801 20.707 29.85 21.545l-18.358-83.496zm19.086 84.758c-.31-.04-22.698-3.679-31.584-22.326-7.536-15.817-3.415-37.43 12.254-64.237.115-.198.335-.322.569-.266.228.034.408.21.457.43l18.848 85.725c.04.181-.012.368-.138.498-.105.113-.253.176-.406.176zM44.647 303.129c-5.826 0-11.66-3.9-17.428-11.67-.185-.243-.132-.594.115-.78.242-.182.596-.13.78.118 8.435 11.358 16.931 14.069 25.255 8.053 6.026-4.363 8.29-9.762 6.73-16.055-4.266-17.204-35.289-36.168-52.51-39.06.705 2.564 3.057 10.804 6.698 20.227.111.288-.032.61-.318.718-.284.12-.61-.028-.72-.317-4.406-11.392-6.937-21.074-6.962-21.17-.047-.182 0-.374.124-.51.123-.136.32-.215.494-.181 17.312 2.433 49.845 22.15 54.276 40.022 1.682 6.785-.726 12.58-7.156 17.226-3.117 2.252-6.246 3.379-9.378 3.379M122.74 243.86c-17.187 5.982-45.887 31.624-47.25 49.631-.483 6.384 2.544 11.233 8.995 14.42 4.675 2.309 9.11 2.348 13.182.124 17.43-9.513 24.166-57.118 25.073-64.175zm-31.317 66.931c-2.405 0-4.887-.628-7.43-1.879-6.902-3.407-10.136-8.624-9.615-15.5 1.415-18.698 31.51-45.381 48.855-50.887.184-.068.378-.023.523.096.147.119.222.305.199.498-.256 2.252-6.509 55.392-25.754 65.895-2.175 1.183-4.439 1.777-6.778 1.777z" transform="translate(.29)"/>
        <path fill="#000" d="M70.191 341.102c-.245 0-.468-.165-.536-.408-15.243-54.401-44.39-82.245-44.683-82.522-.224-.21-.236-.56-.025-.786.21-.221.565-.232.789-.023.295.277 29.666 28.33 44.991 83.031.085.294-.088.606-.385.69-.051.012-.102.018-.15.018M77.276 341.102c-.33-.012-.568-.272-.557-.578l1.35-36.054c.012-.294.259-.532.558-.532.33.011.568.271.557.577l-1.351 36.055c-.012.294-.258.532-.557.532M77.978 283.05c-.301 0-.548-.238-.557-.543l-.702-23.769c-.009-.305.233-.566.54-.577.294-.028.564.232.574.543l.702 23.774c.01.3-.233.56-.54.572h-.017M86.547 341.271c-.269 0-.506-.198-.55-.47-9.261-57.429 25.405-85.985 25.757-86.268.237-.192.59-.152.783.09.194.239.154.59-.087.788-.344.271-34.506 28.448-25.35 85.21.048.305-.159.594-.464.639-.03.011-.06.011-.089.011M160.746 157.167c.747 0 1.477.385 1.884 1.076l10.312 17.492c.145.243.375.419.649.487.268.068.56.028.807-.113l5.615-3.311c.505-.3.673-.95.377-1.454l-10.314-17.493c-.608-1.035-.261-2.377.77-2.988l6.432-3.786c.324-.192.519-.532.523-.905.004-.38-.185-.719-.504-.917l-26.235-16.236c-.34-.215-.752-.221-1.1-.012-.348.204-.542.56-.524.968l1.51 30.814c.018.374.228.708.559.883.332.176.724.17 1.046-.017l7.09-4.188c.347-.203.727-.3 1.103-.3zm13.116 20.204c-.185 0-.369-.023-.551-.068-.563-.147-1.035-.504-1.328-1.002L161.67 158.81c-.144-.244-.376-.42-.653-.487-.276-.074-.564-.034-.805.113l-7.093 4.182c-.662.385-1.462.408-2.143.04-.678-.368-1.104-1.041-1.142-1.817l-1.51-30.814c-.04-.81.371-1.568 1.071-1.986.697-.402 1.562-.402 2.255.028l26.233 16.236c.655.408 1.041 1.11 1.034 1.879-.01.77-.41 1.466-1.073 1.856l-6.432 3.786c-.504.3-.672.957-.375 1.46l10.313 17.493c.61 1.035.263 2.377-.77 2.982l-5.615 3.31c-.338.199-.719.3-1.103.3zM312.633 106.795H239.09c-.308 0-.557-.249-.557-.554 0-.312.249-.56.557-.56h73.543c.308 0 .556.248.556.56 0 .305-.248.554-.556.554M312.633 119.194H239.09c-.308 0-.557-.249-.557-.56 0-.305.249-.554.557-.554h73.543c.308 0 .556.249.556.554 0 .311-.248.56-.556.56M213.515 105.064c-4.142 0-7.512 3.372-7.512 7.515 0 4.142 3.37 7.51 7.512 7.51 4.142 0 7.512-3.368 7.512-7.51 0-4.143-3.37-7.515-7.512-7.515zm0 16.14c-4.757 0-8.626-3.871-8.626-8.625 0-4.76 3.87-8.63 8.626-8.63 4.757 0 8.626 3.87 8.626 8.63 0 4.754-3.869 8.624-8.626 8.624zM312.633 140.184H239.09c-.308 0-.557-.249-.557-.56 0-.306.249-.555.557-.555h73.543c.308 0 .556.25.556.555 0 .311-.248.56-.556.56M312.633 152.578H239.09c-.308 0-.557-.243-.557-.555 0-.305.249-.554.557-.554h73.543c.308 0 .556.249.556.554 0 .312-.248.555-.556.555M213.515 138.453c-4.142 0-7.512 3.367-7.512 7.51 0 4.147 3.37 7.515 7.512 7.515 4.142 0 7.512-3.368 7.512-7.516 0-4.142-3.37-7.51-7.512-7.51zm0 16.14c-4.757 0-8.626-3.871-8.626-8.63 0-4.754 3.87-8.625 8.626-8.625 4.757 0 8.626 3.87 8.626 8.624 0 4.76-3.869 8.63-8.626 8.63zM312.633 173.353H239.09c-.308 0-.557-.25-.557-.56 0-.306.249-.555.557-.555h73.543c.308 0 .556.249.556.554 0 .312-.248.56-.556.56M312.633 185.746H239.09c-.308 0-.557-.243-.557-.554 0-.312.249-.555.557-.555h73.543c.308 0 .556.243.556.555 0 .31-.248.554-.556.554M213.515 171.62c-4.142 0-7.512 3.368-7.512 7.51 0 4.143 3.37 7.516 7.512 7.516 4.142 0 7.512-3.373 7.512-7.515 0-4.143-3.37-7.51-7.512-7.51zm0 16.14c-4.757 0-8.626-3.87-8.626-8.63 0-4.753 3.87-8.624 8.626-8.624 4.757 0 8.626 3.871 8.626 8.625 0 4.759-3.869 8.63-8.626 8.63zM164.986 229.135h-57.954c-.308 0-.557-.249-.557-.555 0-.31.249-.56.557-.56h57.397v-20.695c0-.306.248-.555.557-.555.309 0 .557.249.557.555v21.255c0 .306-.248.555-.557.555M90.55 222.995c-.308 0-.557-.25-.557-.56v-42.903c0-.305.249-.554.557-.554h68.683c.308 0 .557.249.557.554 0 .312-.249.56-.557.56H91.107v42.343c0 .31-.248.56-.557.56" transform="translate(.29)"/>
    </g>
</svg>
